<svg xmlns="http://www.w3.org/2000/svg" width="37" height="37" viewBox="0 0 37 37">
  <g id="Group_99" data-name="Group 99" transform="translate(0)">
    <path id="Path_171" data-name="Path 171" d="M18.5,0A18.5,18.5,0,1,1,0,18.5,18.5,18.5,0,0,1,18.5,0Z" transform="translate(0 0)" fill="#7c3567"/>
    <g id="Group_27" data-name="Group 27" transform="translate(10.341 10.592)">
      <g id="instagram2" transform="translate(0 0)">
        <path id="Path_60" data-name="Path 60" d="M16.52,4.738a5.888,5.888,0,0,0-.375-1.955A4.128,4.128,0,0,0,13.787.425,5.9,5.9,0,0,0,11.833.05C10.97.009,10.7,0,8.508,0S6.046.009,5.187.047A5.89,5.89,0,0,0,3.232.422,3.932,3.932,0,0,0,1.8,1.354,3.968,3.968,0,0,0,.874,2.78,5.9,5.9,0,0,0,.5,4.735C.459,5.6.449,5.871.449,8.059S.459,10.521.5,11.38a5.888,5.888,0,0,0,.375,1.955,4.127,4.127,0,0,0,2.358,2.358,5.9,5.9,0,0,0,1.955.375c.859.038,1.133.047,3.321.047s2.462-.009,3.321-.047a5.887,5.887,0,0,0,1.955-.375,4.122,4.122,0,0,0,2.358-2.358,5.908,5.908,0,0,0,.375-1.955c.038-.859.047-1.133.047-3.321S16.558,5.6,16.52,4.738Zm-1.451,6.579a4.417,4.417,0,0,1-.277,1.5,2.673,2.673,0,0,1-1.53,1.53,4.433,4.433,0,0,1-1.5.277c-.85.038-1.1.047-3.255.047s-2.408-.009-3.255-.047a4.415,4.415,0,0,1-1.5-.277,2.48,2.48,0,0,1-.925-.6,2.505,2.505,0,0,1-.6-.925,4.433,4.433,0,0,1-.277-1.5c-.038-.85-.047-1.105-.047-3.255s.009-2.408.047-3.255a4.415,4.415,0,0,1,.277-1.5,2.449,2.449,0,0,1,.6-.926,2.5,2.5,0,0,1,.925-.6,4.436,4.436,0,0,1,1.5-.277c.85-.038,1.105-.047,3.255-.047s2.408.009,3.255.047a4.417,4.417,0,0,1,1.5.277,2.478,2.478,0,0,1,.925.6,2.5,2.5,0,0,1,.6.926,4.435,4.435,0,0,1,.277,1.5c.038.85.047,1.1.047,3.255S15.107,10.467,15.069,11.317Zm0,0" transform="translate(-0.449 0)" fill="#fcfcfc"/>
        <path id="Path_61" data-name="Path 61" d="M129.089,124.5a4.14,4.14,0,1,0,4.14,4.14A4.141,4.141,0,0,0,129.089,124.5Zm0,6.825a2.685,2.685,0,1,1,2.685-2.685A2.686,2.686,0,0,1,129.089,131.325Zm0,0" transform="translate(-121.03 -120.581)" fill="#fcfcfc"/>
        <path id="Path_62" data-name="Path 62" d="M364.382,89.568a.966.966,0,1,1-.967-.966A.966.966,0,0,1,364.382,89.568Zm0,0" transform="translate(-351.053 -85.812)" fill="#fcfcfc"/>
      </g>
    </g>
  </g>
</svg>
