<svg xmlns="http://www.w3.org/2000/svg" width="23.072" height="23.071" viewBox="0 0 23.072 23.071">
  <g id="phone-call" transform="translate(11.939) rotate(47)">
    <path id="Path_64" data-name="Path 64" d="M7.265,9.059c1.6,1.6,3.389,2.422,3.983,1.828l.75-.75a1.463,1.463,0,0,1,2.069,0h0l1.656,1.656a2.048,2.048,0,0,1,0,2.9h0l-1.165,1.165C13.116,17.3,8.793,15.313,4.9,11.422A21.058,21.058,0,0,1,.687,5.675c-.8-1.748-.938-3.189-.216-3.91L1.636.6a2.048,2.048,0,0,1,2.9,0h0L6.188,2.256a1.463,1.463,0,0,1,0,2.069h0l-.75.75c-.595.595.225,2.382,1.827,3.984Z" transform="translate(0 0)" fill="#0f110d"/>
  </g>
</svg>
