<svg xmlns="http://www.w3.org/2000/svg" width="37" height="37" viewBox="0 0 37 37">
  <g id="Group_100" data-name="Group 100" transform="translate(-0.343)">
    <path id="Path_172" data-name="Path 172" d="M18.5,0A18.5,18.5,0,1,1,0,18.5,18.5,18.5,0,0,1,18.5,0Z" transform="translate(0.343 0)" fill="#0f110d"/>
    <g id="brands-and-logotypes_1_" data-name="brands-and-logotypes (1)" transform="translate(11.842 12.32)">
      <g id="Group_26" data-name="Group 26">
        <path id="Path_63" data-name="Path 63" d="M15.234,49.465a6.511,6.511,0,0,1-1.8.493,3.106,3.106,0,0,0,1.374-1.726,6.241,6.241,0,0,1-1.98.756,3.123,3.123,0,0,0-5.4,2.136,3.216,3.216,0,0,0,.072.712,8.84,8.84,0,0,1-6.437-3.267,3.124,3.124,0,0,0,.96,4.174,3.084,3.084,0,0,1-1.411-.385v.034a3.137,3.137,0,0,0,2.5,3.069,3.117,3.117,0,0,1-.819.1,2.761,2.761,0,0,1-.591-.053A3.153,3.153,0,0,0,4.62,57.687,6.275,6.275,0,0,1,.747,59.019,5.85,5.85,0,0,1,0,58.976a8.792,8.792,0,0,0,4.791,1.4A8.827,8.827,0,0,0,13.68,51.49c0-.138,0-.271-.011-.4A6.23,6.23,0,0,0,15.234,49.465Z" transform="translate(0 -48)" fill="#fcfcfc"/>
      </g>
    </g>
  </g>
</svg>
