<svg id="envelopes" xmlns="http://www.w3.org/2000/svg" width="19.767" height="15.057" viewBox="0 0 19.767 15.057">
  <g id="Group_19" data-name="Group 19" transform="translate(0.993 0)">
    <g id="Group_18" data-name="Group 18" transform="translate(0 0)">
      <path id="Path_56" data-name="Path 56" d="M42.758,61H26.465a1.717,1.717,0,0,0-.744.174l8.852,8.852,1.984-1.907h0L43.5,61.174A1.717,1.717,0,0,0,42.758,61Z" transform="translate(-25.721 -61)" fill="#7c3567"/>
    </g>
  </g>
  <g id="Group_21" data-name="Group 21" transform="translate(13.058 0.993)">
    <g id="Group_20" data-name="Group 20" transform="translate(0 0)">
      <path id="Path_57" data-name="Path 57" d="M344.749,86.728l-6.536,6.535,6.536,6.536a1.718,1.718,0,0,0,.174-.744V87.472A1.717,1.717,0,0,0,344.749,86.728Z" transform="translate(-338.213 -86.728)" fill="#7c3567"/>
    </g>
  </g>
  <g id="Group_23" data-name="Group 23" transform="translate(0 0.993)">
    <g id="Group_22" data-name="Group 22" transform="translate(0 0)">
      <path id="Path_58" data-name="Path 58" d="M.174,86.721A1.717,1.717,0,0,0,0,87.465V99.048a1.718,1.718,0,0,0,.174.744L6.71,93.257Z" transform="translate(0 -86.721)" fill="#7c3567"/>
    </g>
  </g>
  <g id="Group_25" data-name="Group 25" transform="translate(0.993 8.348)">
    <g id="Group_24" data-name="Group 24">
      <path id="Path_59" data-name="Path 59" d="M36.96,277.211l-1.984,1.907a.579.579,0,0,1-.819,0l-1.907-1.907-6.536,6.535a1.717,1.717,0,0,0,.745.174H42.751a1.717,1.717,0,0,0,.744-.174Z" transform="translate(-25.714 -277.211)" fill="#7c3567"/>
    </g>
  </g>
</svg>
