<svg xmlns="http://www.w3.org/2000/svg" width="37" height="37" viewBox="0 0 37 37">
  <g id="Group_122" data-name="Group 122" transform="translate(0.342)">
    <path id="Path_174" data-name="Path 174" d="M18.5,0A18.5,18.5,0,1,1,0,18.5,18.5,18.5,0,0,1,18.5,0Z" transform="translate(-0.342 0)" fill="#fff"/>
    <g id="Group_102" data-name="Group 102" transform="translate(13.893 10.464)">
      <path id="Path_65" data-name="Path 65" d="M-19234.33,18478.363h3.279l.008-6.8h2.322l.381-3.1h-2.7v-1.941a.947.947,0,0,1,.309-.512,1.772,1.772,0,0,1,.678-.273h1.717v-2.771a12.587,12.587,0,0,0-2.7-.062,3.084,3.084,0,0,0-2.094.893,4.421,4.421,0,0,0-1.031,2.07v2.6h-2.418v3.182h2.318Z" transform="translate(19236.822 -18462.186)" fill="#7c3567"/>
      <path id="facebook" d="M97.038,24.069l-1.391-.1c-.109,0-2.194-.139-3.038.444a3.89,3.89,0,0,0-1.6,1.938,20.854,20.854,0,0,0-.19,3.289H88.385V33.2h2.294v6.466h.47V32.688H88.806v-2.73h2.343v-2.01a3.28,3.28,0,0,1,3.5-3.6,19.277,19.277,0,0,1,2.1.107v2.436H95.318c-1.131,0-1.35.537-1.35,1.326v1.74h2.7l-.352,2.73H93.968v6.975h.346V32.973h2.358l.366-3.129v-.332l-2.724.068V27.816s.116-.557.5-.614,2.221,0,2.221,0V24.069Zm1.428-.622" transform="translate(-88.385 -23.447)" fill="#7c3567"/>
    </g>
  </g>
</svg>
