<svg xmlns="http://www.w3.org/2000/svg" width="23.721" height="23.722" viewBox="0 0 23.721 23.722">
  <g id="restaurant-cutlery-symbol-of-a-cross" transform="translate(-21.001 -11)">
    <path id="Path_167" data-name="Path 167" d="M22.986,21.69a1.146,1.146,0,1,1-1.619,1.62c-3.107-3.336-9.318-10.01-9.318-10.01l-.353-.377Q6.822,18.156,1.95,23.392a1.206,1.206,0,0,1-1.636.018,1.209,1.209,0,0,1,.017-1.639Q5.583,16.886,10.831,12S9.137,10.171,8.407,9.387A4.3,4.3,0,0,1,2.641,8.266C1,6.282-.41,2.734.957,1.282c1.454-1.368,5,.047,6.984,1.684A4.3,4.3,0,0,1,9.061,8.73q1.321,1.23,2.642,2.458l-.005,0s.055.043.005,0l2.471-2.3a3.122,3.122,0,0,1,.9-3.806C16.368,4,21.17-.127,21.3,0s-3.24,3.311-5.49,5.568l.375.375c2.4-2.105,5.793-5.263,5.924-5.134S18.974,4.228,16.8,6.56l.373.372C19.5,4.753,22.787,1.49,22.914,1.618S19.885,5.139,17.78,7.542l.373.372c2.256-2.25,5.438-5.619,5.568-5.491s-5.07,6.223-5.078,6.232,1.1-1.3,0,0a3,3,0,0,1-3.8.9l-2.271,2.44Z" transform="translate(21 11)" fill="#912070"/>
  </g>
</svg>
